<?xml version="1.0" encoding="UTF-8" standalone="no"?>
<!DOCTYPE svg PUBLIC "-//W3C//DTD SVG 1.1//EN"
 "http://www.w3.org/Graphics/SVG/1.1/DTD/svg11.dtd">
<!-- Generated by graphviz version 2.38.0 (20140413.2041)
 -->
<!-- Title: %3 Pages: 1 -->
<svg width="231pt" height="305pt"
 viewBox="0.00 0.00 231.34 305.00" xmlns="http://www.w3.org/2000/svg" xmlns:xlink="http://www.w3.org/1999/xlink">
<g id="graph0" class="graph" transform="scale(1 1) rotate(0) translate(4 301)">
<title>%3</title>
<polygon fill="white" stroke="none" points="-4,4 -4,-301 227.344,-301 227.344,4 -4,4"/>
<!-- Q = {s} -->
<g id="node1" class="node"><title>Q = {s}</title>
<ellipse fill="none" stroke="black" cx="64.3443" cy="-279" rx="40.0939" ry="18"/>
<text text-anchor="middle" x="64.3443" y="-275.3" font-family="Times New Roman,serif" font-size="14.00">Q = {s}</text>
</g>
<!-- Σ = T -->
<g id="node2" class="node"><title>Σ = T</title>
<ellipse fill="none" stroke="black" cx="64.3443" cy="-192" rx="32.4942" ry="18"/>
<text text-anchor="middle" x="64.3443" y="-188.3" font-family="Times New Roman,serif" font-size="14.00">Σ = T</text>
</g>
<!-- Q = {s}&#45;&gt;Σ = T -->
<g id="edge1" class="edge"><title>Q = {s}&#45;&gt;Σ = T</title>
<path fill="none" stroke="black" d="M64.3443,-260.799C64.3443,-249.163 64.3443,-233.548 64.3443,-220.237"/>
<polygon fill="black" stroke="black" points="67.8444,-220.175 64.3443,-210.175 60.8444,-220.175 67.8444,-220.175"/>
<text text-anchor="middle" x="78.3443" y="-231.8" font-family="Times New Roman,serif" font-size="14.00">vzdy</text>
</g>
<!-- Γ = N ∪ T -->
<g id="node3" class="node"><title>Γ = N ∪ T</title>
<ellipse fill="none" stroke="black" cx="64.3443" cy="-105" rx="50.8918" ry="18"/>
<text text-anchor="middle" x="64.3443" y="-101.3" font-family="Times New Roman,serif" font-size="14.00">Γ = N ∪ T</text>
</g>
<!-- Σ = T&#45;&gt;Γ = N ∪ T -->
<g id="edge2" class="edge"><title>Σ = T&#45;&gt;Γ = N ∪ T</title>
<path fill="none" stroke="black" d="M64.3443,-173.799C64.3443,-162.163 64.3443,-146.548 64.3443,-133.237"/>
<polygon fill="black" stroke="black" points="67.8444,-133.175 64.3443,-123.175 60.8444,-133.175 67.8444,-133.175"/>
<text text-anchor="middle" x="78.3443" y="-144.8" font-family="Times New Roman,serif" font-size="14.00">vzdy</text>
</g>
<!-- for each a ∈ Σ -->
<g id="node4" class="node"><title>for each a ∈ Σ</title>
<ellipse fill="none" stroke="black" cx="64.3443" cy="-18" rx="64.189" ry="18"/>
<text text-anchor="middle" x="64.3443" y="-14.3" font-family="Times New Roman,serif" font-size="14.00">for each a ∈ Σ</text>
</g>
<!-- Γ = N ∪ T&#45;&gt;for each a ∈ Σ -->
<g id="edge3" class="edge"><title>Γ = N ∪ T&#45;&gt;for each a ∈ Σ</title>
<path fill="none" stroke="black" d="M64.3443,-86.799C64.3443,-75.1626 64.3443,-59.5479 64.3443,-46.2368"/>
<polygon fill="black" stroke="black" points="67.8444,-46.1754 64.3443,-36.1754 60.8444,-46.1755 67.8444,-46.1754"/>
<text text-anchor="middle" x="107.844" y="-57.8" font-family="Times New Roman,serif" font-size="14.00">if Σ β ∈ ∈ ≠ Ø</text>
</g>
<!-- c -->
<g id="node5" class="node"><title>c</title>
<ellipse fill="none" stroke="black" cx="160.344" cy="-279" rx="27" ry="18"/>
<text text-anchor="middle" x="160.344" y="-275.3" font-family="Times New Roman,serif" font-size="14.00">c</text>
</g>
<!-- e -->
<g id="node6" class="node"><title>e</title>
<ellipse fill="none" stroke="black" cx="160.344" cy="-192" rx="27" ry="18"/>
<text text-anchor="middle" x="160.344" y="-188.3" font-family="Times New Roman,serif" font-size="14.00">e</text>
</g>
<!-- c&#45;&gt;e -->
<g id="edge4" class="edge"><title>c&#45;&gt;e</title>
<path fill="none" stroke="black" d="M160.344,-260.799C160.344,-249.163 160.344,-233.548 160.344,-220.237"/>
<polygon fill="black" stroke="black" points="163.844,-220.175 160.344,-210.175 156.844,-220.175 163.844,-220.175"/>
<text text-anchor="middle" x="169.344" y="-231.8" font-family="Times New Roman,serif" font-size="14.00">0.6</text>
</g>
<!-- e&#45;&gt;e -->
<g id="edge5" class="edge"><title>e&#45;&gt;e</title>
<path fill="none" stroke="black" d="M184.877,-199.752C195.852,-200.49 205.344,-197.906 205.344,-192 205.344,-188.032 201.059,-185.563 194.919,-184.594"/>
<polygon fill="black" stroke="black" points="194.991,-181.095 184.877,-184.248 194.75,-188.091 194.991,-181.095"/>
<text text-anchor="middle" x="214.344" y="-188.3" font-family="Times New Roman,serif" font-size="14.00">0.1</text>
</g>
<!-- b -->
<g id="node7" class="node"><title>b</title>
<ellipse fill="none" stroke="black" cx="160.344" cy="-105" rx="27" ry="18"/>
<text text-anchor="middle" x="160.344" y="-101.3" font-family="Times New Roman,serif" font-size="14.00">b</text>
</g>
<!-- e&#45;&gt;b -->
<g id="edge6" class="edge"><title>e&#45;&gt;b</title>
<path fill="none" stroke="black" d="M160.344,-173.799C160.344,-162.163 160.344,-146.548 160.344,-133.237"/>
<polygon fill="black" stroke="black" points="163.844,-133.175 160.344,-123.175 156.844,-133.175 163.844,-133.175"/>
<text text-anchor="middle" x="169.344" y="-144.8" font-family="Times New Roman,serif" font-size="14.00">0.7</text>
</g>
</g>
</svg>
